HIERARCHY
ROOT WRIST
{
	OFFSET 0.000000 0.000000 0.000000
	CHANNELS 6 Xposition Yposition Zposition Yrotation Xrotation Zrotation
	JOINT THUMB_CMC_FE
	{
		OFFSET -0.225143 0.117753 -0.062308
		CHANNELS 3 Yrotation Xrotation Zrotation
		JOINT THUMB_CMC_AA
		{
			OFFSET -0.212856 -0.150507 0.098851
			CHANNELS 3 Yrotation Xrotation Zrotation
			JOINT THUMB_MCP_FE
			{
				OFFSET 0.322503 -0.167445 -0.031436
				CHANNELS 3 Yrotation Xrotation Zrotation
				JOINT THUMB_IP_FE
				{
					OFFSET -0.295233 -0.236404 0.025845
					CHANNELS 3 Yrotation Xrotation Zrotation
					End Site
					{
						OFFSET 0.000000 0.000000 0.000000
					}
				}
			}
		}
	}
	JOINT INDEX_MCP
	{
		OFFSET -1.076913 0.264198 -0.014768
		CHANNELS 3 Yrotation Xrotation Zrotation
		JOINT INDEX_PIP_FE
		{
			OFFSET -0.425053 0.013289 0.013619
			CHANNELS 3 Yrotation Xrotation Zrotation
			JOINT INDEX_DIP_FE
			{
				OFFSET -0.271505 -0.024898 0.000550
				CHANNELS 3 Yrotation Xrotation Zrotation
				End Site
				{
					OFFSET 0.000000 0.000000 0.000000
				}
			}
		}
	}
	JOINT MIDDLE_MCP
	{
		OFFSET -1.072991 0.019362 0.038780
		CHANNELS 3 Yrotation Xrotation Zrotation
		JOINT MIDDLE_PIP_FE
		{
			OFFSET -0.480704 0.002618 0.028696
			CHANNELS 3 Yrotation Xrotation Zrotation
			JOINT MIDDLE_DIP_FE
			{
				OFFSET -0.307486 -0.031129 -0.000643
				CHANNELS 3 Yrotation Xrotation Zrotation
				End Site
				{
					OFFSET 0.000000 0.000000 0.000000
				}
			}
		}
	}
	JOINT RING_MCP
	{
		OFFSET -0.994992 -0.195930 -0.005938
		CHANNELS 3 Yrotation Xrotation Zrotation
		JOINT RING_PIP_FE
		{
			OFFSET -0.436995 0.003792 0.019994
			CHANNELS 3 Yrotation Xrotation Zrotation
			JOINT RING_DIP_FE
			{
				OFFSET -0.295558 -0.038341 -0.006642
				CHANNELS 3 Yrotation Xrotation Zrotation
				End Site
				{
					OFFSET 0.000000 0.000000 0.000000
				}
			}
		}
	}
	JOINT PINKY_MCP
	{
		OFFSET -0.873858 -0.393246 -0.086282
		CHANNELS 3 Yrotation Xrotation Zrotation
		JOINT PINKY_PIP_FE
		{
			OFFSET -0.343972 -0.016492 0.013445
			CHANNELS 3 Yrotation Xrotation Zrotation
			JOINT PINKY_DIP_FE
			{
				OFFSET -0.224713 -0.036309 -0.010265
				CHANNELS 3 Yrotation Xrotation Zrotation
				End Site
				{
					OFFSET 0.000000 0.000000 0.000000
				}
			}
		}
	}
}
MOTION
Frames: 16
Frame Time: 0.008333334
-0.469918 2.925307 3.789598 -96.660160 -69.973940 -7.192047 -61.461180 4.834465 -67.526700 -119.352900 -30.976930 -4.071442 112.863900 -65.843200 42.428650 -4.562073 -8.459839 21.014570 164.675100 3.270554 170.431200 41.978000 -86.125610 -23.821750 2.052642 1.704990 25.304120 169.757700 -1.759399 167.068000 39.241490 -88.411440 -22.418460 6.002511 4.395442 -3.602844 -178.587800 -5.202850 168.112500 31.479570 -85.617800 -1.252533 -0.199310 0.562919 -4.968506 -172.605300 -10.759670 166.341600 48.977610 -83.530520 -13.813290 -5.539795 0.809169 13.224800 
-0.469600 2.925026 3.789568 -96.587710 -69.963900 -7.252686 -61.461180 4.834475 -67.512760 -119.352900 -30.976930 -4.100128 112.863900 -65.843260 42.392880 -4.562103 -8.459839 20.973950 164.638200 3.269824 170.431300 41.978230 -86.125670 -23.814360 2.052636 1.705011 25.281840 169.745000 -1.760620 167.083800 39.240710 -88.411320 -22.400910 6.002535 4.395452 -3.523010 -178.622800 -5.211578 168.111100 31.479500 -85.617800 -1.267700 -0.199310 0.562930 -4.968506 -172.612200 -10.762120 166.340700 48.977550 -83.530640 -13.787630 -5.539795 0.809188 13.234730 
-0.469362 2.924898 3.789579 -96.579500 -69.971100 -7.258118 -61.461180 4.834484 -67.500700 -119.352900 -30.976930 -4.086700 112.863900 -65.843260 42.365940 -4.562103 -8.459839 21.016380 164.661300 3.270282 170.425700 41.978010 -86.125550 -23.781740 2.052628 1.704999 25.277370 169.774100 -1.757874 167.074700 39.241210 -88.411320 -22.356350 6.002513 4.395451 -3.505341 -178.588600 -5.203033 168.101000 31.479570 -85.617860 -1.214600 -0.199310 0.562925 -4.968536 -172.591100 -10.754670 166.319400 48.977510 -83.530610 -13.748140 -5.539795 0.809162 13.232430 
-0.469109 2.924753 3.789705 -96.502380 -70.007320 -7.311401 -61.461180 4.834480 -67.552060 -119.352900 -30.976930 -4.105621 112.864000 -65.843230 42.376420 -4.562073 -8.459869 21.027700 164.625400 3.269578 170.490300 41.978260 -86.125610 -23.800630 2.052625 1.705009 25.293210 169.707100 -1.764221 167.119500 39.240270 -88.411190 -22.418850 6.002522 4.395433 -3.477936 -178.652800 -5.219055 168.147300 31.479760 -85.617800 -1.253143 -0.199310 0.562926 -4.968536 -172.697300 -10.792020 166.369900 48.977590 -83.530610 -13.851560 -5.539825 0.809165 13.262340 
-0.468803 2.924918 3.789964 -96.503690 -69.983460 -7.304962 -61.461180 4.834472 -67.502320 -119.352900 -30.976930 -4.101990 112.863900 -65.843230 42.337660 -4.562073 -8.459839 21.053210 164.629800 3.269666 170.471200 41.978430 -86.125670 -23.745180 2.052600 1.704984 25.284680 169.739500 -1.761139 167.118000 39.240360 -88.411320 -22.321690 6.002511 4.395442 -3.476929 -178.672200 -5.223877 168.147100 31.479540 -85.617830 -1.337646 -0.199310 0.562914 -4.968536 -172.695700 -10.791440 166.377700 48.977620 -83.530610 -13.920650 -5.539825 0.809166 13.374760 
-0.468671 2.925074 3.790211 -96.500210 -69.970120 -7.311646 -61.461180 4.834470 -67.473330 -119.352900 -30.976900 -4.106689 112.864000 -65.843260 42.319370 -4.562103 -8.459839 21.078210 164.626500 3.269593 170.438500 41.978130 -86.125610 -23.747590 2.052617 1.704989 25.199780 169.815000 -1.753967 167.089300 39.240480 -88.411070 -22.210480 6.002530 4.395463 -3.272583 -178.675800 -5.224762 168.138700 31.479460 -85.617740 -1.349976 -0.199310 0.562927 -4.968536 -172.712900 -10.797490 166.366400 48.977520 -83.530640 -13.978420 -5.539825 0.809163 13.456470 
-0.468350 2.925567 3.790676 -96.531430 -70.016480 -7.259552 -61.461210 4.834476 -67.471800 -119.352900 -30.976930 -4.079132 112.864000 -65.843230 42.251600 -4.562103 -8.459839 21.173210 164.636100 3.269781 170.506400 41.978030 -86.125550 -23.793820 2.052631 1.705012 25.169720 169.843600 -1.751282 167.116400 39.240970 -88.411440 -22.166900 6.002528 4.395442 -3.227325 -178.626500 -5.212494 168.170600 31.479420 -85.617800 -1.181976 -0.199310 0.562945 -4.968536 -172.771700 -10.818150 166.430500 48.977620 -83.530550 -14.137180 -5.539825 0.809161 13.669440 
-0.467970 2.925783 3.791196 -96.545990 -69.978240 -7.228882 -61.461180 4.834463 -67.419740 -119.352900 -30.976930 -4.070313 112.863900 -65.843230 42.222370 -4.562103 -8.459839 21.158350 164.621200 3.269496 170.520500 41.978000 -86.125550 -23.839780 2.052641 1.705008 25.295870 169.864900 -1.749268 167.141400 39.240880 -88.411440 -22.125980 6.002528 4.395461 -3.295319 -178.688900 -5.228027 168.204600 31.479460 -85.617800 -1.261536 -0.199280 0.562926 -4.968536 -172.776000 -10.819640 166.438900 48.977470 -83.530580 -14.254580 -5.539795 0.809173 13.913540 
-0.467952 2.926020 3.791735 -96.621730 -69.971980 -7.161743 -61.461180 4.834466 -67.368410 -119.352900 -30.976930 -4.016541 112.863900 -65.843230 42.174970 -4.562103 -8.459839 21.100240 164.642500 3.269913 170.497000 41.978130 -86.125610 -23.948670 2.052623 1.704999 25.422860 169.936800 -1.742432 167.108400 39.240540 -88.411440 -21.966550 6.002524 4.395452 -3.483734 -178.543700 -5.191833 168.173700 31.479600 -85.617830 -1.081970 -0.199310 0.562931 -4.968506 -172.843000 -10.843140 166.481300 48.977550 -83.530640 -14.491330 -5.539795 0.809155 13.963430 
-0.468253 2.926237 3.792144 -96.679600 -69.998500 -7.117218 -61.461180 4.834478 -67.341980 -119.352900 -30.976930 -3.976593 112.863900 -65.843230 42.120620 -4.562103 -8.459839 21.226030 164.693800 3.270916 170.500700 41.978020 -86.125610 -23.953400 2.052632 1.705001 25.500760 169.916400 -1.744385 167.123500 39.240260 -88.411440 -22.043520 6.002515 4.395435 -3.604034 -178.443400 -5.166840 168.165900 31.479350 -85.617800 -0.961762 -0.199310 0.562926 -4.968536 -172.761000 -10.814390 166.435100 48.977470 -83.530640 -14.232540 -5.539825 0.809161 13.908450 
-0.468810 2.926535 3.792475 -96.823000 -69.982540 -7.002380 -61.461180 4.834478 -67.389530 -119.352900 -30.976930 -4.030182 112.864000 -65.843230 42.304200 -4.562103 -8.459839 20.838460 164.807000 3.273140 170.474600 41.978220 -86.125670 -23.834870 2.052622 1.704989 25.563850 170.019400 -1.734619 167.111800 39.240750 -88.411440 -21.951230 6.002517 4.395429 -3.705200 -178.384600 -5.152161 168.157500 31.479600 -85.617800 -1.015778 -0.199310 0.562920 -4.968506 -172.655500 -10.777310 166.426400 48.977520 -83.530550 -14.200900 -5.539825 0.809160 13.937830 
-0.469154 2.926421 3.792701 -96.823000 -69.966190 -7.015320 -61.461180 4.834472 -67.357570 -119.352900 -30.976930 -4.025818 112.863900 -65.843230 42.288710 -4.562073 -8.459839 20.779500 164.787200 3.272735 170.477400 41.978320 -86.125700 -23.874730 2.052640 1.705016 25.584390 170.031000 -1.733521 167.128700 39.240770 -88.411320 -21.861540 6.002529 4.395452 -3.959045 -178.322500 -5.136658 168.160200 31.479350 -85.617740 -0.873322 -0.199310 0.562926 -4.968536 -172.647200 -10.774380 166.420600 48.977550 -83.530580 -14.196230 -5.539825 0.809168 13.941620 
-0.469479 2.926758 3.792967 -96.901700 -69.955290 -6.942291 -61.461180 4.834478 -67.339570 -119.352900 -30.976930 -3.988129 112.864000 -65.843230 42.313470 -4.562103 -8.459839 20.701110 164.833000 3.273637 170.499400 41.977920 -86.125550 -23.837830 2.052627 1.705003 25.605710 169.976000 -1.738739 167.184900 39.240330 -88.411070 -21.971710 6.002542 4.395468 -4.088257 -178.260100 -5.121063 168.182400 31.479310 -85.617830 -0.776672 -0.199310 0.562930 -4.968506 -172.631100 -10.768740 166.438400 48.977660 -83.530580 -14.230350 -5.539825 0.809167 14.030580 
-0.469868 2.926672 3.793043 -96.904050 -69.912410 -6.967896 -61.461180 4.834468 -67.301760 -119.352900 -30.976960 -3.995178 112.863900 -65.843260 42.352930 -4.562103 -8.459839 20.787770 164.797700 3.272949 170.464300 41.978160 -86.125610 -23.879850 2.052627 1.704990 25.642540 170.030100 -1.733612 167.143600 39.241130 -88.411320 -21.868350 6.002524 4.395447 -4.017242 -178.280300 -5.126099 168.155000 31.479560 -85.617830 -0.835602 -0.199310 0.562923 -4.968506 -172.561800 -10.744350 166.405000 48.977360 -83.530580 -14.151000 -5.539795 0.809170 14.072580 
-0.469964 2.926078 3.793174 -96.760190 -69.876620 -7.133789 -61.461180 4.834476 -67.304230 -119.352900 -30.976960 -4.032410 112.863900 -65.843260 42.342970 -4.562073 -8.459839 20.821520 164.581100 3.268698 170.389600 41.978120 -86.125700 -24.011200 2.052632 1.704986 25.332250 169.931000 -1.742981 167.104900 39.240500 -88.411190 -21.938390 6.002507 4.395425 -3.897675 -178.323600 -5.136902 168.103900 31.479400 -85.617800 -0.789581 -0.199310 0.562937 -4.968506 -172.556100 -10.742340 166.356600 48.977510 -83.530580 -14.041660 -5.539795 0.809174 14.073480 
-0.470549 2.925905 3.793097 -96.695220 -69.890690 -7.223389 -61.461180 4.834476 -67.277220 -119.352900 -30.976930 -4.041443 112.864000 -65.843200 42.390170 -4.562103 -8.459869 20.811560 164.508400 3.267261 170.393600 41.978230 -86.125610 -24.020810 2.052615 1.704983 25.247620 169.848800 -1.750763 167.104000 39.240510 -88.411190 -22.011990 6.002527 4.395465 -3.815826 -178.344100 -5.142029 168.089800 31.479420 -85.617830 -0.704804 -0.199310 0.562927 -4.968506 -172.594200 -10.755740 166.345400 48.977440 -83.530670 -13.919590 -5.539825 0.809175 13.969560 
